<svg width="288" height="64" viewBox="0 0 288 64" xmlns="http://www.w3.org/2000/svg">
<defs>
  <filter id="btnShadow" x="-50%" y="-50%" width="200%" height="200%">
    <feDropShadow dx="0" dy="2" stdDeviation="3" flood-color="#0f172a" flood-opacity="0.04" />
  </filter>
</defs>
<style>
  .footer-btn { fill: #ffffff; stroke: #e2e8f0; stroke-width: 1; filter: url(#btnShadow); transition: all 0.2s ease; cursor: pointer; }
  svg:hover .footer-btn { fill: #f8fafc; stroke: #cbd5e1; }
  .btn-text { font-family: 'Plus Jakarta Sans', system-ui, -apple-system, sans-serif; font-size: 10.5px; font-weight: 700; fill: #1e293b; }
</style>
<rect width="100%" height="100%" fill="#f8fafc" />
<!-- Centered with equal 34px spacing on both sides -->
<rect x="27" y="10" width="234" height="44" rx="14" class="footer-btn" />
<g transform="translate(39, 21)">
  <circle cx="11" cy="11" r="11" fill="#ef4444" opacity="0.12"/>
  <path fill="#dc2626" d="M19 6H3c-.55 0-1 .45-1 1v10c0 .55.45 1 1 1h16c.55 0 1-.45 1-1V7c0-.55-.45-1-1-1zm-1 2l-7 4.375L4 8V7l7 4.375L18 7v1z" transform="translate(0, -1) scale(1)"/>
</g>
<text x="67" y="37" class="btn-text">navneetkrgupta01@gmail.com</text>
</svg>
